<?xml version="1.0" encoding="UTF-8"?>
<svg xmlns="http://www.w3.org/2000/svg" viewBox="0 0 1200 300" width="1200" height="300" role="img" aria-label="Svapna">

<g fill="none" stroke="#000000" stroke-linecap="round"><circle cx="150" cy="150" r="100" stroke-width="1"/><circle cx="150" cy="150" r="62.0" stroke-width="2.8"/><circle cx="150" cy="150" r="32.0" stroke-width="1"/></g><circle cx="150" cy="88.0" r="3" fill="#000000"/><circle cx="150" cy="150" r="4.5" fill="#000000"/>
<line x1="300" y1="50" x2="300" y2="250" stroke="#000000" stroke-width="0.6"/>
<g fill="#000000" stroke="none">
<path d="M238 0 50 730H143L267 234Q280 182 289.0 137.5Q298 93 302 70Q306 93 314.5 137.5Q323 182 336 234L459 730H550L361 0Z" transform="translate(340.000 78.000) scale(0.0140 -0.0140)"/>
<path d="M300 -10Q234 -10 186.5 15.0Q139 40 113.5 87.5Q88 135 88 200V530Q88 596 113.5 643.0Q139 690 186.5 715.0Q234 740 300 740Q366 740 413.5 715.0Q461 690 486.5 643.0Q512 596 512 531V200Q512 135 486.5 87.5Q461 40 413.5 15.0Q366 -10 300 -10ZM300 71Q359 71 390.5 104.5Q422 138 422 200V530Q422 592 390.5 625.5Q359 659 300 659Q242 659 210.0 625.5Q178 592 178 530V200Q178 138 210.0 104.5Q242 71 300 71Z" transform="translate(350.920 78.000) scale(0.0140 -0.0140)"/>
<path d="M115 0V730H205V82H535V0Z" transform="translate(361.840 78.000) scale(0.0140 -0.0140)"/>
<path d="M300 -10Q262 -10 239.5 12.0Q217 34 217 71Q217 110 239.5 133.0Q262 156 300 156Q338 156 360.5 133.0Q383 110 383 71Q383 34 360.5 12.0Q338 -10 300 -10Z" transform="translate(372.760 78.000) scale(0.0140 -0.0140)"/>
<path d="M105 0V82H254V648H105V730H495V648H346V82H495V0Z" transform="translate(394.600 78.000) scale(0.0140 -0.0140)"/>
<path d="M300 260Q262 260 239.5 282.0Q217 304 217 341Q217 380 239.5 403.0Q262 426 300 426Q338 426 360.5 403.0Q383 380 383 341Q383 304 360.5 282.0Q338 260 300 260Z" transform="translate(427.360 78.000) scale(0.0140 -0.0140)"/>
<path d="M100 0V730H520V648H189V422H485V341H189V82H520V0Z" transform="translate(460.120 78.000) scale(0.0140 -0.0140)"/>
<path d="M304 -10Q232 -10 180.5 14.0Q129 38 101.0 83.0Q73 128 72 190H162Q162 135 199.5 103.0Q237 71 304 71Q367 71 402.5 102.0Q438 133 438 188Q438 232 414.5 265.0Q391 298 347 311L248 342Q173 365 132.5 419.0Q92 473 92 546Q92 605 118.5 648.5Q145 692 193.0 716.5Q241 741 306 741Q402 741 460.0 687.5Q518 634 519 545H429Q429 599 396.5 629.5Q364 660 305 660Q247 660 214.5 632.0Q182 604 182 554Q182 509 206.0 476.0Q230 443 275 429L375 397Q448 374 488.0 319.0Q528 264 528 190Q528 130 500.0 85.0Q472 40 421.5 15.0Q371 -10 304 -10Z" transform="translate(471.040 78.000) scale(0.0140 -0.0140)"/>
<path d="M255 0V649H55V731H545V649H345V0Z" transform="translate(481.960 78.000) scale(0.0140 -0.0140)"/>
<path d="M300 -10Q262 -10 239.5 12.0Q217 34 217 71Q217 110 239.5 133.0Q262 156 300 156Q338 156 360.5 133.0Q383 110 383 71Q383 34 360.5 12.0Q338 -10 300 -10Z" transform="translate(492.880 78.000) scale(0.0140 -0.0140)"/>
<path d="M76 0V730H194L270 494Q281 462 290.0 430.5Q299 399 303 382Q308 399 316.0 430.5Q324 462 334 495L406 730H524V0H436V265Q436 309 439.0 365.0Q442 421 447.0 479.5Q452 538 457.5 591.5Q463 645 467 685L349 320H254L135 685Q140 646 145.0 594.5Q150 543 154.0 485.5Q158 428 161.0 371.0Q164 314 164 265V0Z" transform="translate(514.720 78.000) scale(0.0140 -0.0140)"/>
<path d="M76 0V730H194L270 494Q281 462 290.0 430.5Q299 399 303 382Q308 399 316.0 430.5Q324 462 334 495L406 730H524V0H436V265Q436 309 439.0 365.0Q442 421 447.0 479.5Q452 538 457.5 591.5Q463 645 467 685L349 320H254L135 685Q140 646 145.0 594.5Q150 543 154.0 485.5Q158 428 161.0 371.0Q164 314 164 265V0Z" transform="translate(525.640 78.000) scale(0.0140 -0.0140)"/>
<path d="M40 0 250 370 51 730H155L268 514Q277 497 286.5 477.5Q296 458 302 447Q307 458 316.5 477.5Q326 497 335 514L450 730H549L350 376L560 0H457L332 232Q323 249 313.5 268.5Q304 288 299 300Q294 288 284.5 269.0Q275 250 266 233L140 0Z" transform="translate(536.560 78.000) scale(0.0140 -0.0140)"/>
<path d="M40 0 250 370 51 730H155L268 514Q277 497 286.5 477.5Q296 458 302 447Q307 458 316.5 477.5Q326 497 335 514L450 730H549L350 376L560 0H457L332 232Q323 249 313.5 268.5Q304 288 299 300Q294 288 284.5 269.0Q275 250 266 233L140 0Z" transform="translate(547.480 78.000) scale(0.0140 -0.0140)"/>
<path d="M238 0 50 730H143L267 234Q280 182 289.0 137.5Q298 93 302 70Q306 93 314.5 137.5Q323 182 336 234L459 730H550L361 0Z" transform="translate(558.400 78.000) scale(0.0140 -0.0140)"/>
<path d="M105 0V82H254V648H105V730H495V648H346V82H495V0Z" transform="translate(569.320 78.000) scale(0.0140 -0.0140)"/>
</g>
<g fill="#000000" stroke="none">
<path d="M145 508Q145 467 165.5 437.5Q186 408 218.0 386.0Q250 364 286 342Q323 321 357.5 297.0Q392 273 414.5 240.0Q437 207 437 159Q437 111 413.0 72.5Q389 34 343.5 11.0Q298 -12 231 -12Q207 -12 183.5 -8.5Q160 -5 136.5 3.0Q113 11 90 23Q85 26 83.5 30.5Q82 35 81 42L68 178Q67 183 72.5 183.5Q78 184 79 180Q86 150 99.0 119.0Q112 88 133.0 62.0Q154 36 184.0 20.0Q214 4 254 4Q283 4 310.5 15.0Q338 26 355.5 51.0Q373 76 373 119Q373 168 351.5 200.5Q330 233 297.0 257.0Q264 281 227 302Q192 324 159.5 347.0Q127 370 106.5 401.5Q86 433 86 480Q86 533 113.0 567.5Q140 602 183.0 619.0Q226 636 272 636Q300 636 330.0 630.5Q360 625 389 612Q397 609 400.5 604.5Q404 600 404 595L411 481Q411 477 406.0 476.5Q401 476 399 480Q397 500 388.0 524.5Q379 549 362.0 571.0Q345 593 319.0 607.0Q293 621 256 621Q217 621 192.5 604.5Q168 588 156.5 562.5Q145 537 145 508Z" transform="translate(336.000 200.000) scale(0.1240 -0.1240)"/>
<path d="M431 386Q433 386 433.0 380.0Q433 374 431 374Q406 374 388.5 358.5Q371 343 354 301L229 1Q228 -3 218.5 -3.0Q209 -3 207 1L67 303Q46 348 32.5 361.0Q19 374 0 374Q-3 374 -3.0 380.0Q-3 386 0 386Q15 386 32.5 385.0Q50 384 69 384Q103 384 128.0 385.0Q153 386 174 386Q177 386 177.0 380.0Q177 374 174 374Q143 374 125.0 366.5Q107 359 118 335L246 63L217 22L334 306Q349 342 331.5 358.0Q314 374 262 374Q260 374 260.0 380.0Q260 386 262 386Q286 386 307.5 385.0Q329 384 363 384Q384 384 397.5 385.0Q411 386 431 386Z" transform="translate(396.884 200.000) scale(0.1240 -0.1240)"/>
<path d="M314 -6Q310 -8 306 -8Q293 -8 281.0 13.5Q269 35 269 76V265Q269 327 251.5 352.0Q234 377 206 377Q181 377 165.0 364.5Q149 352 141.5 335.0Q134 318 131 303Q128 289 121.0 275.5Q114 262 93 262Q76 262 68.0 271.5Q60 281 60 292Q60 311 78.5 329.0Q97 347 125.5 362.5Q154 378 185.5 387.0Q217 396 242 396Q283 396 304.0 369.5Q325 343 325 295V108Q325 73 334.0 57.0Q343 41 363 41Q381 41 413 54Q418 56 420.0 50.5Q422 45 417 43ZM134 -7Q96 -7 76.0 13.5Q56 34 56 62Q56 82 66.5 98.5Q77 115 100.0 129.0Q123 143 159 156L279 201L282 188L176 147Q158 140 146.0 131.0Q134 122 128.5 111.0Q123 100 123 87Q123 64 138.0 47.0Q153 30 179 30Q189 30 200.0 33.0Q211 36 227 46L290 84L292 71L218 23Q194 7 174.5 0.0Q155 -7 134 -7Z" transform="translate(450.700 200.000) scale(0.1240 -0.1240)"/>
<path d="M32 -275Q29 -275 29.0 -269.0Q29 -263 32 -263Q71 -263 83.0 -250.0Q95 -237 95 -194V276Q95 311 87.0 327.0Q79 343 59 343Q49 343 35.5 339.5Q22 336 6 329Q2 327 -1.0 332.5Q-4 338 0 340L111 393Q114 394 118 394Q132 394 141.5 371.5Q151 349 151 305V-194Q151 -222 158.5 -237.0Q166 -252 187.5 -257.5Q209 -263 251 -263Q253 -263 253.0 -269.0Q253 -275 251 -275Q225 -275 192.5 -274.0Q160 -273 124 -273Q98 -273 73.5 -274.0Q49 -275 32 -275ZM257 -13Q219 -13 190.0 -4.0Q161 5 125 30L139 85Q167 52 200.0 30.0Q233 8 287 8Q339 8 373.5 54.0Q408 100 408 184Q408 271 370.0 316.0Q332 361 277 361Q233 361 199.5 336.5Q166 312 134 278L126 286Q177 345 224.0 372.0Q271 399 319 399Q360 399 395.0 377.5Q430 356 451.0 315.0Q472 274 472 215Q472 154 451.5 111.0Q431 68 397.5 40.5Q364 13 327.0 0.0Q290 -13 257 -13Z" transform="translate(502.656 200.000) scale(0.1240 -0.1240)"/>
<path d="M314 0Q311 0 311.0 6.0Q311 12 314 12Q353 12 364.5 25.5Q376 39 376 81V243Q376 303 354.0 330.5Q332 358 284 358Q248 358 210.0 335.0Q172 312 145 272L141 284Q185 343 228.5 371.0Q272 399 317 399Q372 399 402.5 368.5Q433 338 433 277V81Q433 39 444.5 25.5Q456 12 495 12Q498 12 498.0 6.0Q498 0 495 0Q478 0 454.5 1.0Q431 2 405 2Q379 2 355.0 1.0Q331 0 314 0ZM45 0Q42 0 42.0 6.0Q42 12 45 12Q84 12 95.5 25.5Q107 39 107 81V279Q107 312 99.5 327.5Q92 343 72 343Q62 343 48.5 339.0Q35 335 18 328Q14 327 11.5 332.0Q9 337 13 339L129 394Q132 395 135 395Q142 395 153.0 374.0Q164 353 164 313V81Q164 39 175.5 25.5Q187 12 226 12Q229 12 229.0 6.0Q229 0 226 0Q209 0 185.5 1.0Q162 2 136 2Q110 2 86.0 1.0Q62 0 45 0Z" transform="translate(566.020 200.000) scale(0.1240 -0.1240)"/>
<path d="M314 -6Q310 -8 306 -8Q293 -8 281.0 13.5Q269 35 269 76V265Q269 327 251.5 352.0Q234 377 206 377Q181 377 165.0 364.5Q149 352 141.5 335.0Q134 318 131 303Q128 289 121.0 275.5Q114 262 93 262Q76 262 68.0 271.5Q60 281 60 292Q60 311 78.5 329.0Q97 347 125.5 362.5Q154 378 185.5 387.0Q217 396 242 396Q283 396 304.0 369.5Q325 343 325 295V108Q325 73 334.0 57.0Q343 41 363 41Q381 41 413 54Q418 56 420.0 50.5Q422 45 417 43ZM134 -7Q96 -7 76.0 13.5Q56 34 56 62Q56 82 66.5 98.5Q77 115 100.0 129.0Q123 143 159 156L279 201L282 188L176 147Q158 140 146.0 131.0Q134 122 128.5 111.0Q123 100 123 87Q123 64 138.0 47.0Q153 30 179 30Q189 30 200.0 33.0Q211 36 227 46L290 84L292 71L218 23Q194 7 174.5 0.0Q155 -7 134 -7Z" transform="translate(630.128 200.000) scale(0.1240 -0.1240)"/>
</g>
<g fill="#000000" stroke="none">
<path d="M92 0V730H281Q352 730 403.5 703.0Q455 676 483.5 627.0Q512 578 512 511V220Q512 153 483.5 103.5Q455 54 403.5 27.0Q352 0 281 0ZM182 80H281Q347 80 384.5 117.0Q422 154 422 220V511Q422 576 384.5 613.0Q347 650 281 650H182Z" transform="translate(340.000 246.000) scale(0.0130 -0.0130)"/>
<path d="M92 0V730H318Q383 730 432.0 703.5Q481 677 508.0 630.0Q535 583 535 520Q535 446 496.5 393.0Q458 340 392 320L545 0H439L299 310H182V0ZM182 391H318Q374 391 408.0 426.5Q442 462 442 520Q442 579 408.0 614.0Q374 649 318 649H182Z" transform="translate(350.140 246.000) scale(0.0130 -0.0130)"/>
<path d="M100 0V730H520V648H189V422H485V341H189V82H520V0Z" transform="translate(360.280 246.000) scale(0.0130 -0.0130)"/>
<path d="M50 0 240 730H361L550 0H459L411 194H190L142 0ZM208 270H392L336 495Q320 559 311.0 602.0Q302 645 300 658Q298 645 289.0 602.0Q280 559 264 496Z" transform="translate(370.420 246.000) scale(0.0130 -0.0130)"/>
<path d="M76 0V730H194L270 494Q281 462 290.0 430.5Q299 399 303 382Q308 399 316.0 430.5Q324 462 334 495L406 730H524V0H436V265Q436 309 439.0 365.0Q442 421 447.0 479.5Q452 538 457.5 591.5Q463 645 467 685L349 320H254L135 685Q140 646 145.0 594.5Q150 543 154.0 485.5Q158 428 161.0 371.0Q164 314 164 265V0Z" transform="translate(380.560 246.000) scale(0.0130 -0.0130)"/>
<path d="M255 0V273L35 730H128L273 430Q285 405 292.0 387.5Q299 370 301 362Q303 370 310.5 387.5Q318 405 330 430L472 730H565L345 273V0Z" transform="translate(400.840 246.000) scale(0.0130 -0.0130)"/>
<path d="M300 -10Q234 -10 186.5 15.0Q139 40 113.5 87.5Q88 135 88 200V530Q88 596 113.5 643.0Q139 690 186.5 715.0Q234 740 300 740Q366 740 413.5 715.0Q461 690 486.5 643.0Q512 596 512 531V200Q512 135 486.5 87.5Q461 40 413.5 15.0Q366 -10 300 -10ZM300 71Q359 71 390.5 104.5Q422 138 422 200V530Q422 592 390.5 625.5Q359 659 300 659Q242 659 210.0 625.5Q178 592 178 530V200Q178 138 210.0 104.5Q242 71 300 71Z" transform="translate(410.980 246.000) scale(0.0130 -0.0130)"/>
<path d="M304 -10Q238 -10 189.5 15.0Q141 40 114.5 87.5Q88 135 88 200V530Q88 596 114.5 643.0Q141 690 189.5 715.0Q238 740 304 740Q370 740 418.0 714.5Q466 689 492.0 642.0Q518 595 518 530H428Q428 592 395.5 625.5Q363 659 304 659Q245 659 211.5 626.0Q178 593 178 531V200Q178 138 211.5 104.0Q245 70 304 70Q363 70 395.5 104.0Q428 138 428 200V290H280V372H518V200Q518 136 492.0 88.5Q466 41 418.0 15.5Q370 -10 304 -10Z" transform="translate(421.120 246.000) scale(0.0130 -0.0130)"/>
<path d="M50 0 240 730H361L550 0H459L411 194H190L142 0ZM208 270H392L336 495Q320 559 311.0 602.0Q302 645 300 658Q298 645 289.0 602.0Q280 559 264 496Z" transform="translate(431.260 246.000) scale(0.0130 -0.0130)"/>
<path d="M300 260Q262 260 239.5 282.0Q217 304 217 341Q217 380 239.5 403.0Q262 426 300 426Q338 426 360.5 403.0Q383 380 383 341Q383 304 360.5 282.0Q338 260 300 260Z" transform="translate(461.680 246.000) scale(0.0130 -0.0130)"/>
<path d="M115 0V730H205V82H535V0Z" transform="translate(492.100 246.000) scale(0.0130 -0.0130)"/>
<path d="M300 -10Q198 -10 144.0 46.5Q90 103 90 200V730H180V200Q180 140 209.5 105.0Q239 70 300 70Q360 70 390.0 105.0Q420 140 420 200V730H510V200Q510 102 456.5 46.0Q403 -10 300 -10Z" transform="translate(502.240 246.000) scale(0.0130 -0.0130)"/>
<path d="M304 -10Q238 -10 189.5 15.0Q141 40 114.5 87.5Q88 135 88 200V530Q88 596 114.5 643.0Q141 690 189.5 715.0Q238 740 304 740Q370 740 418.0 714.5Q466 689 492.0 642.0Q518 595 518 530H428Q428 592 395.5 625.5Q363 659 304 659Q245 659 211.5 626.0Q178 593 178 531V200Q178 138 211.5 104.5Q245 71 304 71Q363 71 395.5 104.5Q428 138 428 200H518Q518 136 492.0 88.5Q466 41 418.0 15.5Q370 -10 304 -10Z" transform="translate(512.380 246.000) scale(0.0130 -0.0130)"/>
<path d="M105 0V82H254V648H105V730H495V648H346V82H495V0Z" transform="translate(522.520 246.000) scale(0.0130 -0.0130)"/>
<path d="M92 0V730H281Q352 730 403.5 703.0Q455 676 483.5 627.0Q512 578 512 511V220Q512 153 483.5 103.5Q455 54 403.5 27.0Q352 0 281 0ZM182 80H281Q347 80 384.5 117.0Q422 154 422 220V511Q422 576 384.5 613.0Q347 650 281 650H182Z" transform="translate(532.660 246.000) scale(0.0130 -0.0130)"/>
<path d="M92 0V730H281Q352 730 403.5 703.0Q455 676 483.5 627.0Q512 578 512 511V220Q512 153 483.5 103.5Q455 54 403.5 27.0Q352 0 281 0ZM182 80H281Q347 80 384.5 117.0Q422 154 422 220V511Q422 576 384.5 613.0Q347 650 281 650H182Z" transform="translate(552.940 246.000) scale(0.0130 -0.0130)"/>
<path d="M92 0V730H318Q383 730 432.0 703.5Q481 677 508.0 630.0Q535 583 535 520Q535 446 496.5 393.0Q458 340 392 320L545 0H439L299 310H182V0ZM182 391H318Q374 391 408.0 426.5Q442 462 442 520Q442 579 408.0 614.0Q374 649 318 649H182Z" transform="translate(563.080 246.000) scale(0.0130 -0.0130)"/>
<path d="M100 0V730H520V648H189V422H485V341H189V82H520V0Z" transform="translate(573.220 246.000) scale(0.0130 -0.0130)"/>
<path d="M50 0 240 730H361L550 0H459L411 194H190L142 0ZM208 270H392L336 495Q320 559 311.0 602.0Q302 645 300 658Q298 645 289.0 602.0Q280 559 264 496Z" transform="translate(583.360 246.000) scale(0.0130 -0.0130)"/>
<path d="M76 0V730H194L270 494Q281 462 290.0 430.5Q299 399 303 382Q308 399 316.0 430.5Q324 462 334 495L406 730H524V0H436V265Q436 309 439.0 365.0Q442 421 447.0 479.5Q452 538 457.5 591.5Q463 645 467 685L349 320H254L135 685Q140 646 145.0 594.5Q150 543 154.0 485.5Q158 428 161.0 371.0Q164 314 164 265V0Z" transform="translate(593.500 246.000) scale(0.0130 -0.0130)"/>
<path d="M105 0V82H254V648H105V730H495V648H346V82H495V0Z" transform="translate(603.640 246.000) scale(0.0130 -0.0130)"/>
<path d="M90 0V730H210L433 105Q431 130 428.5 166.5Q426 203 424.5 243.5Q423 284 423 320V730H510V0H390L168 625Q170 601 172.0 564.5Q174 528 175.5 487.5Q177 447 177 410V0Z" transform="translate(613.780 246.000) scale(0.0130 -0.0130)"/>
<path d="M304 -10Q238 -10 189.5 15.0Q141 40 114.5 87.5Q88 135 88 200V530Q88 596 114.5 643.0Q141 690 189.5 715.0Q238 740 304 740Q370 740 418.0 714.5Q466 689 492.0 642.0Q518 595 518 530H428Q428 592 395.5 625.5Q363 659 304 659Q245 659 211.5 626.0Q178 593 178 531V200Q178 138 211.5 104.0Q245 70 304 70Q363 70 395.5 104.0Q428 138 428 200V290H280V372H518V200Q518 136 492.0 88.5Q466 41 418.0 15.5Q370 -10 304 -10Z" transform="translate(623.920 246.000) scale(0.0130 -0.0130)"/>
</g>
</svg>
